<?xml version="1.0" encoding="UTF-8"?>
<svg version="1.1" xmlns="http://www.w3.org/2000/svg" width="512" height="512">
<path d="M0 0 C168.96 0 337.92 0 512 0 C512 168.96 512 337.92 512 512 C343.04 512 174.08 512 0 512 C0 343.04 0 174.08 0 0 Z " fill="#F7F7F7" transform="translate(0,0)"/>
<path d="M0 0 C4.57539935 0.51209314 4.57539935 0.51209314 6.43115234 2.64453125 C6.81223145 3.35996094 7.19331055 4.07539062 7.5859375 4.8125 C8.03364502 5.6274292 8.48135254 6.4423584 8.94262695 7.28198242 C9.65165161 8.62740112 9.65165161 8.62740112 10.375 10 C11.43592388 11.93517446 12.4998554 13.86870233 13.56640625 15.80078125 C14.12473145 16.81865723 14.68305664 17.8365332 15.25830078 18.88525391 C18.15232508 24.0607462 21.23646884 29.11881217 24.3125 34.1875 C32.05890351 47.02051682 39.54295662 59.99737671 47 73 C55.00390158 86.94322965 63.06507115 100.847496 71.27850342 114.66815186 C77.86890135 125.75811647 84.34655766 136.90855715 90.77783203 148.09130859 C100.02085882 164.20552722 100.02085882 164.20552722 109.51489258 180.17211914 C113.20962874 186.2885722 116.75272684 192.49186088 120.3125 198.6875 C124.76731148 206.43684355 129.25415842 214.16090412 133.875 221.8125 C144.93723954 240.14691033 155.77757889 258.60905909 166.15014648 277.34326172 C168.73686502 282.00611726 171.35411988 286.63510179 174.125 291.19140625 C174.60267822 291.9793457 175.08035645 292.76728516 175.57250977 293.57910156 C176.45248191 295.01891291 177.34286837 296.45243589 178.24584961 297.87792969 C179.40234375 299.76953125 179.40234375 299.76953125 181 303 C180.67 304.32 180.34 305.64 180 307 C62.52 307 -54.96 307 -176 307 C-177 303 -177 303 -175.4375 300.0234375 C-174.63528835 298.80048067 -173.82173804 297.58492294 -173 296.375 C-168.3081889 289.17970035 -163.95146022 281.83132063 -159.6875 274.375 C-154.98724357 266.1780457 -150.25822787 258.00175021 -145.4375 249.875 C-139.16187062 239.29075822 -132.95786858 228.6657075 -126.76611328 218.03222656 C-123.84671974 213.01994182 -120.92311232 208.01011654 -118 203 C-117.42185547 202.00871094 -116.84371094 201.01742187 -116.24804688 199.99609375 C-113.34568872 195.01969816 -110.44189247 190.04415225 -107.53515625 185.0703125 C-101.53222941 174.79467443 -95.55812212 164.50361437 -89.625 154.1875 C-83.8281074 144.11243287 -77.92726707 134.10287244 -71.98535156 124.11279297 C-66.75274196 115.30231978 -61.61197711 106.44173159 -56.50390625 97.55859375 C-52.36240137 90.35673473 -48.19289371 83.17205502 -44 76 C-38.50553712 66.59896627 -33.05539034 57.17308517 -27.62084961 47.73730469 C-22.71378378 39.22294798 -17.76659041 30.73253489 -12.80810547 22.24804688 C-8.49230699 14.85810076 -4.22047492 7.4448129 0 0 Z " fill="#F6F6F6" transform="translate(254,71)"/>
<path d="M0 0 C7.37765062 3.70807135 9.76286461 8.92304184 12.453125 16.3984375 C14.80110091 25.1688181 14.56179439 34.35573769 14.8125 43.375 C14.85577365 44.83204157 14.8993905 46.28907299 14.94335938 47.74609375 C15.04953302 51.28895412 15.15105111 54.83192963 15.25 58.375 C16.01183594 57.65183594 16.01183594 57.65183594 16.7890625 56.9140625 C24.20547569 50.10873953 29.81943312 48.88065173 39.83984375 49.0703125 C46.61114934 49.67530888 50.45111168 52.26486459 55.0625 57.125 C61.37832979 64.98373798 62.11461606 72.4199068 61.25 82.375 C59.33761803 93.4190059 53.0546147 103.49061629 44.25 110.375 C34.51262249 116.39234946 26.78270136 119.67685095 15.25 118.375 C10.49782842 116.66089235 6.43673443 114.16615628 2.25 111.375 C1.9715625 112.365 1.9715625 112.365 1.6875 113.375 C-3.52344265 124.25001074 -14.61597233 131.2300995 -25.52734375 135.49609375 C-32.47111277 137.38984894 -40.30879185 137.71925274 -47.0625 134.9375 C-49.75 133.375 -49.75 133.375 -50.75 132.375 C-50.46269945 130.03555264 -50.13063221 127.7010857 -49.75 125.375 C-48.08324219 125.33632813 -48.08324219 125.33632813 -46.3828125 125.296875 C-32.7100832 125.138531 -32.7100832 125.138531 -21.1171875 118.7421875 C-20.66601562 118.29101562 -20.21484375 117.83984375 -19.75 117.375 C-19.09 117.375 -18.43 117.375 -17.75 117.375 C-17.47929687 116.82070313 -17.20859375 116.26640625 -16.9296875 115.6953125 C-16.12170327 114.10609849 -15.27006652 112.5385445 -14.3828125 110.9921875 C-4.60843979 93.21599671 -5.13758647 74.09492211 -5.30047607 54.32806396 C-5.31661688 51.53849024 -5.3064882 48.74925191 -5.29635715 45.95966911 C-5.28770454 42.59541851 -5.30284047 39.23142333 -5.31640625 35.8671875 C-5.31347061 34.63064423 -5.31053497 33.39410095 -5.30751038 32.12008667 C-5.37960309 25.51245563 -5.8349401 20.34869671 -8.75 14.375 C-11.08605928 12.44170956 -12.61655195 12.39240627 -15.625 12 C-21.52190463 12.70762856 -25.44751177 16.5479453 -29.09765625 20.97265625 C-34.00541838 28.10805509 -39.90467411 37.13031817 -39.84765625 45.92236328 C-39.84270142 47.29861374 -39.84270142 47.29861374 -39.83764648 48.70266724 C-39.82934814 49.69024017 -39.8210498 50.67781311 -39.8125 51.6953125 C-39.80871338 52.70971405 -39.80492676 53.7241156 -39.80102539 54.76925659 C-39.78879295 58.01288048 -39.77015543 61.25641623 -39.75 64.5 C-39.7235313 68.77343495 -39.70348248 73.04682695 -39.6875 77.3203125 C-39.67920166 78.3119339 -39.67090332 79.3035553 -39.66235352 80.32522583 C-39.65739868 81.69201981 -39.65739868 81.69201981 -39.65234375 83.08642578 C-39.64448853 84.29529953 -39.64448853 84.29529953 -39.63647461 85.52859497 C-39.75 87.375 -39.75 87.375 -40.75 88.375 C-43.4273138 88.47481214 -46.07304175 88.51379875 -48.75 88.5 C-49.87535156 88.50580078 -49.87535156 88.50580078 -51.0234375 88.51171875 C-56.62338947 88.50161053 -56.62338947 88.50161053 -57.75 87.375 C-57.86864569 85.29058596 -57.91743189 83.20217381 -57.93945312 81.11450195 C-57.94774643 80.46075089 -57.95603973 79.80699982 -57.96458435 79.13343811 C-57.98202326 77.70876334 -57.99717947 76.28405928 -58.01036072 74.85933876 C-58.03135676 72.60180252 -58.05838681 70.34441107 -58.08703613 68.08695984 C-58.14683499 63.28719569 -58.19886501 58.48736318 -58.25 53.6875 C-58.30930642 48.14283569 -58.37180505 42.59824088 -58.44187927 37.0537014 C-58.46834475 34.83475847 -58.48923279 32.61580833 -58.5098877 30.39680481 C-58.52650607 29.02535683 -58.54337923 27.65391191 -58.56054688 26.2824707 C-58.57307495 25.09079788 -58.58560303 23.89912506 -58.59851074 22.67134094 C-58.74447159 19.49529592 -59.15686033 16.49560216 -59.75 13.375 C-60.38808594 13.31441406 -61.02617187 13.25382813 -61.68359375 13.19140625 C-62.50988281 13.10761719 -63.33617187 13.02382812 -64.1875 12.9375 C-65.01121094 12.85628906 -65.83492187 12.77507812 -66.68359375 12.69140625 C-68.75 12.375 -68.75 12.375 -69.75 11.375 C-69.9375 7.9375 -69.9375 7.9375 -69.75 4.375 C-67.75 2.375 -67.75 2.375 -65.8671875 2.109375 C-57.34376373 2.16877168 -51.53291122 3.07394194 -45.09765625 8.9375 C-42.59977253 11.6019093 -42.50512793 13.96071731 -42.1875 17.5 C-42.06181641 18.86511719 -42.06181641 18.86511719 -41.93359375 20.2578125 C-41.87300781 20.95648438 -41.81242187 21.65515625 -41.75 22.375 C-41.3375 21.58996094 -40.925 20.80492187 -40.5 19.99609375 C-34.47111657 9.02837054 -28.66403107 3.31107421 -16.75 -0.625 C-11.00766411 -2.53911196 -5.61550189 -2.2631036 0 0 Z " fill="#1D1C1D" transform="translate(267.75,204.625)"/>
<path d="M0 0 C4.57539935 0.51209314 4.57539935 0.51209314 6.43115234 2.64453125 C6.81223145 3.35996094 7.19331055 4.07539062 7.5859375 4.8125 C8.03364502 5.6274292 8.48135254 6.4423584 8.94262695 7.28198242 C9.65165161 8.62740112 9.65165161 8.62740112 10.375 10 C11.43592388 11.93517446 12.4998554 13.86870233 13.56640625 15.80078125 C14.12473145 16.81865723 14.68305664 17.8365332 15.25830078 18.88525391 C18.15232508 24.0607462 21.23646884 29.11881217 24.3125 34.1875 C32.05890351 47.02051682 39.54295662 59.99737671 47 73 C55.00390158 86.94322965 63.06507115 100.847496 71.27850342 114.66815186 C77.86890135 125.75811647 84.34655766 136.90855715 90.77783203 148.09130859 C100.02085882 164.20552722 100.02085882 164.20552722 109.51489258 180.17211914 C113.20962874 186.2885722 116.75272684 192.49186088 120.3125 198.6875 C124.76731148 206.43684355 129.25415842 214.16090412 133.875 221.8125 C144.93723954 240.14691033 155.77757889 258.60905909 166.15014648 277.34326172 C168.73686502 282.00611726 171.35411988 286.63510179 174.125 291.19140625 C174.60267822 291.9793457 175.08035645 292.76728516 175.57250977 293.57910156 C176.45248191 295.01891291 177.34286837 296.45243589 178.24584961 297.87792969 C179.40234375 299.76953125 179.40234375 299.76953125 181 303 C180.67 304.32 180.34 305.64 180 307 C62.52 307 -54.96 307 -176 307 C-177 303 -177 303 -175.4375 300.0234375 C-174.63528835 298.80048067 -173.82173804 297.58492294 -173 296.375 C-168.3081889 289.17970035 -163.95146022 281.83132063 -159.6875 274.375 C-154.98724357 266.1780457 -150.25822787 258.00175021 -145.4375 249.875 C-139.16187062 239.29075822 -132.95786858 228.6657075 -126.76611328 218.03222656 C-123.84671974 213.01994182 -120.92311232 208.01011654 -118 203 C-117.42185547 202.00871094 -116.84371094 201.01742187 -116.24804688 199.99609375 C-113.34568872 195.01969816 -110.44189247 190.04415225 -107.53515625 185.0703125 C-101.53222941 174.79467443 -95.55812212 164.50361437 -89.625 154.1875 C-83.8281074 144.11243287 -77.92726707 134.10287244 -71.98535156 124.11279297 C-66.75274196 115.30231978 -61.61197711 106.44173159 -56.50390625 97.55859375 C-52.36240137 90.35673473 -48.19289371 83.17205502 -44 76 C-38.50553712 66.59896627 -33.05539034 57.17308517 -27.62084961 47.73730469 C-22.71378378 39.22294798 -17.76659041 30.73253489 -12.80810547 22.24804688 C-8.49230699 14.85810076 -4.22047492 7.4448129 0 0 Z M1 11 C0.6596875 11.61593018 0.319375 12.23186035 -0.03125 12.86645508 C-7.54231421 26.43406392 -15.2292695 39.86188506 -23.17138672 53.18212891 C-27.22175592 59.98113809 -31.2154877 66.80654785 -35.125 73.6875 C-41.65597258 85.18025107 -48.32160702 96.59242636 -55 108 C-55.67372269 109.15182194 -56.34738686 110.30367811 -57.02099609 111.45556641 C-59.1378442 115.07521984 -61.2559322 118.69414562 -63.375 122.3125 C-63.73077118 122.91999084 -64.08654236 123.52748169 -64.45309448 124.15338135 C-68.34255786 130.79223422 -72.24422294 137.42345267 -76.1796875 144.03515625 C-76.51858002 144.60460464 -76.85747253 145.17405304 -77.20663452 145.76075745 C-77.54337189 146.32657028 -77.88010925 146.89238312 -78.22705078 147.4753418 C-84.30195349 157.68449219 -90.26441817 167.9413483 -96.07177734 178.30493164 C-100.88600504 186.86675732 -105.89438854 195.3076915 -110.92016602 203.74658203 C-115.48633 211.42209924 -119.98716319 219.1317919 -124.4375 226.875 C-129.70933387 236.04509922 -135.02154112 245.18992062 -140.375 254.3125 C-140.7237619 254.90712036 -141.0725238 255.50174072 -141.43185425 256.11437988 C-145.1498561 262.45310626 -148.87388027 268.78824202 -152.60708618 275.11802673 C-154.19146811 277.8052987 -155.7737495 280.49380423 -157.35577393 283.1824646 C-158.1134508 284.46876123 -158.87218507 285.75443565 -159.63201904 287.03945923 C-160.68429841 288.81909656 -161.73312855 290.60072415 -162.78125 292.3828125 C-163.38001953 293.39746582 -163.97878906 294.41211914 -164.59570312 295.45751953 C-166.10173775 298.00210553 -166.10173775 298.00210553 -167 301 C-55.13 301 56.74 301 172 301 C165.14080885 288.12410967 165.14080885 288.12410967 158.0625 275.375 C157.52020752 274.41754883 156.97791504 273.46009766 156.41918945 272.47363281 C145.82208056 253.83461967 134.84747407 235.41192369 123.89501953 216.98046875 C118.57154807 208.00461803 113.35126111 198.97318394 108.15185547 189.92504883 C104.98431166 184.41871336 101.79467186 178.93122615 98.5 173.5 C94.56769984 167.01502294 90.78118016 160.44904208 87 153.875 C81.58130342 144.45555155 76.12564744 135.0593066 70.625 125.6875 C70.27221985 125.08632355 69.9194397 124.48514709 69.55596924 123.86575317 C67.03861667 119.57640261 64.51952447 115.28807506 62 111 C59.12379359 106.10487431 56.24842026 101.20926177 53.375 96.3125 C52.84649445 95.41195892 52.84649445 95.41195892 52.30731201 94.4932251 C47.24939864 85.87181484 42.23524069 77.22620202 37.25 68.5625 C31.1352357 57.94148812 24.96881798 47.3536641 18.68847656 36.82958984 C17.49290646 34.82602457 16.29979016 32.82099411 15.10839844 30.81494141 C13.18445333 27.58008701 11.24996081 24.35177376 9.3125 21.125 C8.71171631 20.11284424 8.11093262 19.10068848 7.49194336 18.05786133 C6.93385986 17.13384521 6.37577637 16.2098291 5.80078125 15.2578125 C5.30747314 14.4342627 4.81416504 13.61071289 4.3059082 12.76220703 C3.8749585 12.18067871 3.44400879 11.59915039 3 11 C2.34 11 1.68 11 1 11 Z " fill="#1B1B1B" transform="translate(254,71)"/>
<path d="M0 0 C4.8899449 2.58879436 7.82420209 5.37182358 9.546875 10.6875 C11.48598905 20.58366826 10.78088352 29.76142371 5.72265625 38.5625 C2.76105802 42.75306076 -0.0419633 45.3473211 -5 47 C-10.29572939 47.50712636 -14.63665157 47.69406829 -19.4375 45.25 C-20.283125 44.5075 -21.12875 43.765 -22 43 C-22.825 42.443125 -23.65 41.88625 -24.5 41.3125 C-26 39 -26 39 -25.4375 35.0625 C-25.21449219 34.27875 -24.99148438 33.495 -24.76171875 32.6875 C-23.94388884 29.94664697 -23.94388884 29.94664697 -23.39453125 26.875 C-21.27868189 16.00081664 -17.25009751 7.46076398 -8 1 C-5.13391871 -0.43304064 -3.18699217 -0.30644155 0 0 Z " fill="#F5F5F5" transform="translate(302,265)"/>
</svg>
