<?xml version="1.0" encoding="UTF-8"?>
<svg version="1.1" xmlns="http://www.w3.org/2000/svg" width="512" height="512">
<path d="M0 0 C1.83691406 2.25317383 1.83691406 2.25317383 3.515625 5.20703125 C4.43214844 6.7993457 4.43214844 6.7993457 5.3671875 8.42382812 C5.98851562 9.54208984 6.60984375 10.66035156 7.25 11.8125 C7.88679687 12.91916016 8.52359375 14.02582031 9.1796875 15.16601562 C13.861233 23.3985632 13.861233 23.3985632 14.49902344 26.1628418 C15.13563332 28.49738829 16.25188639 29.3600365 18 31 C19.84545426 33.72902441 21.46667922 36.59159215 23.125 39.4375 C23.58003906 40.20126953 24.03507813 40.96503906 24.50390625 41.75195312 C25.15552734 42.86280273 25.15552734 42.86280273 25.8203125 43.99609375 C26.21492676 44.66825928 26.60954102 45.3404248 27.01611328 46.03295898 C28 48 28 48 28.44873047 50.06274414 C29.13145336 52.46194969 30.21461961 53.28442396 32 55 C33.03792696 56.62532711 34.02472325 58.28374263 34.9765625 59.9609375 C35.55672119 60.97607422 36.13687988 61.99121094 36.73461914 63.03710938 C37.35844482 64.13861328 37.98227051 65.24011719 38.625 66.375 C39.96909181 68.72711912 41.31410044 71.07869379 42.66015625 73.4296875 C43.00986984 74.04152893 43.35958344 74.65337036 43.71989441 75.28375244 C47.78314733 82.38565543 51.92082096 89.44364495 56.0625 96.5 C56.77101571 97.70881012 57.47951225 98.91763147 58.18798828 100.12646484 C58.86614958 101.28226257 59.54437076 102.43802515 60.22265625 103.59375 C60.86090332 104.68171875 61.49915039 105.7696875 62.15673828 106.890625 C64.34839715 110.58770676 66.59549477 114.24914214 68.86889648 117.89648438 C69.97244007 119.94874673 70.47165878 121.7471991 71 124 C71.97753644 125.02196992 72.9805881 126.01979625 74 127 C75.58109758 129.37164637 76.8449716 131.34112928 77.5 134.125 C77.84727146 136.07454579 77.84727146 136.07454579 79.33642578 137.29174805 C81.39601932 139.40665501 82.65941319 141.63919439 84.1171875 144.20703125 C85.01896729 145.78460205 85.01896729 145.78460205 85.93896484 147.39404297 C86.57785645 148.52213379 87.21674805 149.65022461 87.875 150.8125 C89.21638478 153.16671827 90.5610855 155.51903353 91.90625 157.87109375 C92.24594818 158.46597595 92.58564636 159.06085815 92.93563843 159.67376709 C96.87420256 166.55588968 100.94549166 173.35969046 105.05029297 180.14379883 C105.81043701 181.41453247 105.81043701 181.41453247 106.5859375 182.7109375 C107.0298584 183.44618652 107.4737793 184.18143555 107.93115234 184.93896484 C108.98244736 186.96615364 109.46494185 188.79428619 110 191 C110.495 191.495 110.99 191.99 111.5 192.5 C113.30148695 194.30148695 113.39283903 195.57135613 114 198 C114.99831881 199.00167837 115.99856869 200.00143337 117 201 C118.84545426 203.72902441 120.46667922 206.59159215 122.125 209.4375 C122.58003906 210.20126953 123.03507812 210.96503906 123.50390625 211.75195312 C123.93832031 212.49251953 124.37273437 213.23308594 124.8203125 213.99609375 C125.21492676 214.66825928 125.60954102 215.3404248 126.01611328 216.03295898 C127 218 127 218 127.44873047 220.06274414 C128.12811373 222.45021365 129.20015906 223.3280821 131 225 C132.66989579 227.39998812 134.1313248 229.92475284 135.625 232.4375 C136.03234375 233.10587891 136.4396875 233.77425781 136.859375 234.46289062 C137.24867188 235.11322266 137.63796875 235.76355469 138.0390625 236.43359375 C138.56814209 237.31615845 138.56814209 237.31615845 139.10791016 238.21655273 C140 240 140 240 140.43505859 242.03540039 C141.12777966 244.44435735 142.19803216 245.29099082 144 247 C144.90775797 248.39736206 145.7694389 249.82528128 146.59375 251.2734375 C147.06683594 252.0984375 147.53992188 252.9234375 148.02734375 253.7734375 C148.51332031 254.63195312 148.99929688 255.49046875 149.5 256.375 C150.46847334 258.07047056 151.43721566 259.76578751 152.40625 261.4609375 C152.85677734 262.2535498 153.30730469 263.04616211 153.77148438 263.86279297 C154.75871768 265.58024932 155.78023741 267.27797507 156.8125 268.96875 C158 271 158 271 158.5 273.125 C158.85101762 275.07022099 158.85101762 275.07022099 160.3125 276.3125 C162.95846107 278.95846107 164.39050447 281.60217611 166 285 C165.32681681 287.32554192 164.67512957 288.32487043 163 290 C161.2252983 290.09923224 159.44660371 290.12739794 157.66913033 290.12863445 C156.50553525 290.1318589 155.34194018 290.13508335 154.14308465 290.1384055 C152.84846712 290.1368569 151.55384959 290.1353083 150.22000122 290.13371277 C148.84359228 290.13557892 147.46718388 290.13787884 146.09077632 290.14057809 C142.29069585 290.14672679 138.49063727 290.14655891 134.69055295 290.14538372 C130.59912857 290.14518048 126.50771136 290.15069109 122.41629028 290.15544128 C114.39359509 290.16376532 106.37090724 290.16649692 98.34820808 290.16705366 C91.82985367 290.16752802 85.31150169 290.16957873 78.79314804 290.17275429 C60.33151746 290.18156584 41.8698927 290.18617291 23.40826 290.18542381 C22.41195705 290.18538386 21.4156541 290.1853439 20.38916016 290.18530273 C19.39164726 290.18526185 18.39413435 290.18522097 17.36639379 290.18517885 C1.19569139 290.1847723 -14.97498773 290.19434294 -31.14568339 290.2084411 C-47.7309232 290.22278711 -64.31615165 290.22971226 -80.90139782 290.22884732 C-90.22025416 290.22851473 -99.5390861 290.23128915 -108.85793686 290.24202538 C-116.79187519 290.2511071 -124.72577807 290.25332491 -132.65971933 290.24651595 C-136.71065579 290.24323884 -140.76152414 290.24323668 -144.81245422 290.2518692 C-148.5171599 290.25968297 -152.22174289 290.25835578 -155.92644538 290.24958507 C-157.9094998 290.24730321 -159.89255787 290.25491878 -161.87559783 290.26282471 C-163.0444084 290.25822592 -164.21321897 290.25362712 -165.41744804 290.24888897 C-166.93684528 290.24921502 -166.93684528 290.24921502 -168.4869374 290.24954766 C-171 290 -171 290 -174 288 C-173.40677577 284.1126365 -172.23692776 281.23202124 -170.3125 277.8125 C-169.77882813 276.85988281 -169.24515625 275.90726562 -168.6953125 274.92578125 C-166.58368686 271.28152409 -164.41471079 267.67575288 -162.19921875 264.09375 C-160.86522163 261.92416581 -160.86522163 261.92416581 -160 259 C-159.34 259 -158.68 259 -158 259 C-157.64228516 257.74703125 -157.64228516 257.74703125 -157.27734375 256.46875 C-155.80126966 252.46032862 -153.81831968 249.10785377 -151.5625 245.5 C-148.8236675 241.07676317 -146.32124056 236.66187868 -144 232 C-143.0291961 230.46036569 -142.03059598 228.93776863 -141 227.4375 C-139.31297587 224.96542503 -137.73674455 222.53930297 -136.25 219.9375 C-135.63125 218.9784375 -135.63125 218.9784375 -135 218 C-134.34 218 -133.68 218 -133 218 C-132.91621094 217.15179688 -132.83242187 216.30359375 -132.74609375 215.4296875 C-131.88496795 211.47121394 -130.21379409 208.49091853 -128.0625 205.125 C-127.70220703 204.53203125 -127.34191406 203.9390625 -126.97070312 203.328125 C-126.0426706 201.84464022 -125.02758664 200.41634641 -124 199 C-123.34 199 -122.68 199 -122 199 C-121.9071875 197.7934375 -121.9071875 197.7934375 -121.8125 196.5625 C-120.74466875 191.88047066 -118.68496106 187.97307322 -116 184 C-115.34 183.67 -114.68 183.34 -114 183 C-113.32353472 181.33728627 -112.65978978 179.66940099 -112 178 C-110.53897479 175.2450553 -108.95325702 172.56410387 -107.375 169.875 C-106.89699951 169.05443115 -106.41899902 168.2338623 -105.92651367 167.38842773 C-101.09169508 159.10921086 -96.17700135 150.87716869 -91.27490234 142.63769531 C-85.59184892 133.06737949 -80.0559849 123.41656652 -74.5793457 113.72680664 C-71.33577008 108.00617943 -68.04692539 102.31436263 -64.65625 96.6796875 C-64.00462891 95.59155762 -63.35300781 94.50342773 -62.68164062 93.38232422 C-62.12669922 92.59615723 -61.57175781 91.80999023 -61 91 C-60.34 91 -59.68 91 -59 91 C-58.87431641 89.72769531 -58.87431641 89.72769531 -58.74609375 88.4296875 C-57.88496795 84.47121394 -56.21379409 81.49091853 -54.0625 78.125 C-53.52206055 77.23554688 -53.52206055 77.23554688 -52.97070312 76.328125 C-52.0426706 74.84464022 -51.02758664 73.41634641 -50 72 C-49.34 72 -48.68 72 -48 72 C-47.92652344 70.81664062 -47.92652344 70.81664062 -47.8515625 69.609375 C-46.65463322 64.5361518 -44.09312808 60.65992713 -41.375 56.25 C-40.19623996 54.30179476 -39.01923374 52.35252756 -37.84375 50.40234375 C-37.22113281 49.37222168 -36.59851563 48.34209961 -35.95703125 47.28076172 C-33.90133419 43.83459692 -31.89495826 40.36396551 -29.90625 36.87890625 C-29.56888824 36.2885257 -29.23152649 35.69814514 -28.88394165 35.08987427 C-27.23041534 32.1940018 -25.58214049 29.29532413 -23.93896484 26.39355469 C-23.33777832 25.34200195 -22.7365918 24.29044922 -22.1171875 23.20703125 C-21.58722168 22.2735083 -21.05725586 21.33998535 -20.51123047 20.37817383 C-19 18 -19 18 -17.30517578 16.36206055 C-15.65406559 14.95339668 -15.65406559 14.95339668 -16 12 C-15.34 11.67 -14.68 11.34 -14 11 C-13.67 10.01 -13.34 9.02 -13 8 C-12.34 8 -11.68 8 -11 8 C-10.938125 7.071875 -10.87625 6.14375 -10.8125 5.1875 C-10 2 -10 2 -7.75 0.0625 C-4.48615942 -1.19852932 -3.27721086 -1.14714941 0 0 Z M-22 132 C-22.33 132.66 -22.66 133.32 -23 134 C-23.9590625 134.8971875 -23.9590625 134.8971875 -24.9375 135.8125 C-27.14619095 137.88445595 -27.14619095 137.88445595 -28.0625 140.6875 C-28.371875 141.450625 -28.68125 142.21375 -29 143 C-29.99 143.33 -30.98 143.66 -32 144 C-31.67 145.32 -31.34 146.64 -31 148 C-32.32 148 -33.64 148 -35 148 C-34.97679687 147.30132812 -34.95359375 146.60265625 -34.9296875 145.8828125 C-34.91164062 144.97273438 -34.89359375 144.06265625 -34.875 143.125 C-34.85179687 142.22007812 -34.82859375 141.31515625 -34.8046875 140.3828125 C-34.75675164 137.81193006 -34.75675164 137.81193006 -37 136 C-38 135 -39 134 -40 133 C-39.67 132.34 -39.34 131.68 -39 131 C-42.87671106 128.32710975 -46.79267603 128.98124347 -51.25 129.375 C-52.36761719 129.46007812 -52.36761719 129.46007812 -53.5078125 129.546875 C-55.33935108 129.68776258 -57.16981352 129.84251884 -59 130 C-59 130.99 -59 131.98 -59 133 C-59.66 133.66 -60.32 134.32 -61 135 C-56.05 135.99 -56.05 135.99 -51 137 C-49.96314941 152.36574402 -49.68667091 167.72928898 -49.4375 183.125 C-49.39419394 185.64453666 -49.35057635 188.16406799 -49.30664062 190.68359375 C-49.20084097 196.78900575 -49.09886576 202.89447198 -49 209 C-46.04267062 209.98577646 -43.53130493 210.33662937 -40.4375 210.625 C-39.46683594 210.72039062 -38.49617188 210.81578125 -37.49609375 210.9140625 C-34.99985883 211.19898133 -34.99985883 211.19898133 -33 210 C-33.00666183 209.41784225 -33.01332367 208.83568451 -33.02018738 208.23588562 C-33.0864769 202.18538934 -33.13177393 196.13499595 -33.16479492 190.08422852 C-33.17989602 187.82507132 -33.20037842 185.56594351 -33.22631836 183.30688477 C-33.26264308 180.06258907 -33.27971308 176.81868044 -33.29296875 173.57421875 C-33.30845261 172.56163498 -33.32393646 171.54905121 -33.33988953 170.50578308 C-33.34011612 169.56503433 -33.34034271 168.62428558 -33.34057617 167.6550293 C-33.34723801 166.82674118 -33.35389984 165.99845306 -33.36076355 165.14506531 C-32.91589244 162.49990453 -31.93829751 161.77137205 -30 160 C-29.896875 159.154375 -29.79375 158.30875 -29.6875 157.4375 C-28.67153607 152.35768036 -26.14690509 148.09760944 -23 144 C-20.96875 142.86328125 -20.96875 142.86328125 -19 142 C-18.113125 141.154375 -17.22625 140.30875 -16.3125 139.4375 C-12.60226712 136.27206081 -8.79549949 135.70028128 -4 136 C-0.5 137.1875 -0.5 137.1875 2 139 C9.21503208 159.35499116 5.63324182 187.96686455 4.26831055 209.12231445 C4.14550082 211.07973446 4.06721639 213.03988335 4 215 C4.33 215.33 4.66 215.66 5 216 C2.23225806 223.5483871 2.23225806 223.5483871 0.875 226.1875 C-0.12768828 228.03861144 -0.12768828 228.03861144 -0.375 230.4375 C-2.26369349 238.18114332 -11.26242676 243.86305406 -17.72167969 247.84521484 C-21.6329526 249.82767529 -25.71068681 250.55149282 -30 251.3125 C-30.87011719 251.48072266 -31.74023438 251.64894531 -32.63671875 251.82226562 C-34.75502213 252.22963166 -36.87716521 252.61694816 -39 253 C-38.814375 253.61875 -38.62875 254.2375 -38.4375 254.875 C-38 257 -38 257 -39 259 C-28.37618939 262.40763737 -18.06464661 260.60098131 -8 256 C0.84187196 250.61948895 0.84187196 250.61948895 6 242 C6.99 241.67 7.98 241.34 9 241 C9.33 239.02 9.66 237.04 10 235 C13.04128913 236.10592332 15.78672704 237.41737594 18.5625 239.0625 C25.22598703 242.8182836 32.46424224 243.07555231 39.8828125 241.31640625 C48.63994267 238.37703526 56.60694219 233.55538769 60.9765625 225.11328125 C61.65635324 223.7095912 62.33088131 222.30333975 63 220.89453125 C63.33 220.20746094 63.66 219.52039063 64 218.8125 C64.495 217.77029297 64.495 217.77029297 65 216.70703125 C66 215 66 215 68 214 C69.08593936 196.43779498 69.08593936 196.43779498 62.75 180.5625 C57.12032867 175.3166699 50.52494516 173.8533369 43 174 C36.77096382 174.82343402 32.50898294 177.14716493 27.6875 181.12890625 C26.80449219 181.85279541 25.92148437 182.57668457 25.01171875 183.32250977 C24.01591797 184.15286743 24.01591797 184.15286743 23 185 C23.01047363 184.09870361 23.02094727 183.19740723 23.03173828 182.26879883 C23.06623538 178.85991759 23.09109751 175.45122722 23.10986328 172.04223633 C23.11979663 170.57899003 23.13334793 169.11576289 23.15087891 167.65258789 C23.26081246 158.22740229 22.78810463 149.30036156 21 140 C20.34 140 19.68 140 19 140 C18.84144531 139.33613281 18.68289063 138.67226562 18.51953125 137.98828125 C17.03868594 132.38397719 15.77921978 128.64131031 11 125 C-0.77748348 119.29338429 -13.05327064 123.50060711 -22 132 Z M-61 128 C-61 128.33 -61 128.66 -61 129 C-56.05 129 -51.1 129 -46 129 C-46 128.67 -46 128.34 -46 128 C-50.95 128 -55.9 128 -61 128 Z M-61 130 C-60 133 -60 133 -60 133 Z M18 134 C19 136 19 136 19 136 Z M19 136 C20 139 20 139 20 139 Z M68 190 C69 193 69 193 69 193 Z M69 194 C69 198.29 69 202.58 69 207 C69.33 207 69.66 207 70 207 C70 202.71 70 198.42 70 194 C69.67 194 69.34 194 69 194 Z M68 207 C69 211 69 211 69 211 Z M-48 211 C-48 211.33 -48 211.66 -48 212 C-43.23692563 212.95261487 -38.8333472 213.08333357 -34 213 C-34 212.67 -34 212.34 -34 212 C-40.93 211.505 -40.93 211.505 -48 211 Z M3 215 C4 219 4 219 4 219 Z M65 217 C66 219 66 219 66 219 Z M2 220 C3 223 3 223 3 223 Z M-40 251 C-40 251.33 -40 251.66 -40 252 C-38.35 252 -36.7 252 -35 252 C-35 251.67 -35 251.34 -35 251 C-36.65 251 -38.3 251 -40 251 Z " fill="#0D0E0E" transform="translate(260,77)"/>
<path d="M0 0 C2.875 1.875 2.875 1.875 5 4 C5.598125 4.45375 6.19625 4.9075 6.8125 5.375 C8.61200223 7.83747673 8.1968535 10.0471975 8 13 C8.66 13 9.32 13 10 13 C10.05451714 15.04136395 10.09302485 17.08315856 10.125 19.125 C10.14820313 20.26195312 10.17140625 21.39890625 10.1953125 22.5703125 C9.99672109 26.05757767 9.2524801 28.7553862 8 32 C7.34 32 6.68 32 6 32 C5.9071875 33.3921875 5.9071875 33.3921875 5.8125 34.8125 C5 38 5 38 2.875 39.5 C1.92625 39.995 0.9775 40.49 0 41 C-1.8309506 42.51776168 -3.59232905 44.0952857 -5.3515625 45.6953125 C-9.48149795 48.96402919 -15.00900539 48.57618346 -20 48 C-23.375 46.1875 -23.375 46.1875 -26 44 C-26.7425 43.443125 -27.485 42.88625 -28.25 42.3125 C-28.8275 41.879375 -29.405 41.44625 -30 41 C-30.66 40.67 -31.32 40.34 -32 40 C-32 38.35 -32 36.7 -32 35 C-31.34 35 -30.68 35 -30 35 C-29.20701081 32.167031 -28.41557728 29.33364215 -27.625 26.5 C-27.40328125 25.70851563 -27.1815625 24.91703125 -26.953125 24.1015625 C-25.8856938 20.2713682 -24.86438737 16.44751136 -23.96484375 12.57421875 C-22.39047076 6.74202731 -18.65590482 4.25005281 -13.75 1.125 C-8.97501788 -1.39778222 -5.13532421 -1.66848082 0 0 Z M6 7 C7 9 7 9 7 9 Z M7 26 C8 29 8 29 8 29 Z " fill="#0E0E0E" transform="translate(307,262)"/>
<path d="M0 0 C110.22 0 220.44 0 334 0 C334 0.33 334 0.66 334 1 C223.78 1 113.56 1 0 1 C0 0.67 0 0.34 0 0 Z " fill="#000000" transform="translate(89,368)"/>
<path d="M0 0 C0.33 0 0.66 0 1 0 C1 16.83 1 33.66 1 51 C0.67 51 0.34 51 0 51 C0 34.17 0 17.34 0 0 Z " fill="#000000" transform="translate(212,232)"/>
<path d="M0 0 C0.33 0 0.66 0 1 0 C1 11.55 1 23.1 1 35 C0.67 35 0.34 35 0 35 C0 23.45 0 11.9 0 0 Z " fill="#000000" transform="translate(267,237)"/>
<path d="M0 0 C0.33 0 0.66 0 1 0 C1 10.56 1 21.12 1 32 C0.67 32 0.34 32 0 32 C0 21.44 0 10.88 0 0 Z " fill="#000000" transform="translate(281,230)"/>
<path d="M0 0 C0.33 0 0.66 0 1 0 C1 7.26 1 14.52 1 22 C0.67 22 0.34 22 0 22 C0 14.74 0 7.48 0 0 Z " fill="#000000" transform="translate(224,244)"/>
<path d="M0 0 C2.475 0.495 2.475 0.495 5 1 C4.1875 2.9375 4.1875 2.9375 3 5 C2.01 5.33 1.02 5.66 0 6 C0 4.02 0 2.04 0 0 Z " fill="#161516" transform="translate(283,256)"/>
<path d="M0 0 C0.33 0 0.66 0 1 0 C1 4.62 1 9.24 1 14 C0.67 14 0.34 14 0 14 C0 9.38 0 4.76 0 0 Z " fill="#000000" transform="translate(266,272)"/>
<path d="M0 0 C0.33 0 0.66 0 1 0 C1 4.29 1 8.58 1 13 C0.67 13 0.34 13 0 13 C0 8.71 0 4.42 0 0 Z " fill="#000000" transform="translate(211,218)"/>
<path d="M0 0 C0.33 0 0.66 0 1 0 C1 3.96 1 7.92 1 12 C0.67 12 0.34 12 0 12 C0 8.04 0 4.08 0 0 Z " fill="#000000" transform="translate(266,225)"/>
<path d="M0 0 C3.96 0 7.92 0 12 0 C12 0.33 12 0.66 12 1 C8.04 1 4.08 1 0 1 C0 0.67 0 0.34 0 0 Z " fill="#000000" transform="translate(254,201)"/>
<path d="M0 0 C3.63 0 7.26 0 11 0 C11 0.33 11 0.66 11 1 C7.37 1 3.74 1 0 1 C0 0.67 0 0.34 0 0 Z " fill="#000000" transform="translate(286,317)"/>
<path d="M0 0 C3.3 0 6.6 0 10 0 C10 0.33 10 0.66 10 1 C6.7 1 3.4 1 0 1 C0 0.67 0 0.34 0 0 Z " fill="#000000" transform="translate(287,311)"/>
<path d="M0 0 C0.33 0 0.66 0 1 0 C1 2.97 1 5.94 1 9 C0.67 9 0.34 9 0 9 C0 6.03 0 3.06 0 0 Z " fill="#000000" transform="translate(280,221)"/>
<path d="M0 0 C0.33 0 0.66 0 1 0 C1 2.97 1 5.94 1 9 C0.67 9 0.34 9 0 9 C0 6.03 0 3.06 0 0 Z " fill="#000000" transform="translate(223,215)"/>
<path d="M0 0 C2.31 0 4.62 0 7 0 C7 0.33 7 0.66 7 1 C4.69 1 2.38 1 0 1 C0 0.67 0 0.34 0 0 Z " fill="#000000" transform="translate(233,335)"/>
<path d="M0 0 C0 0.99 0 1.98 0 3 C-0.99 3 -1.98 3 -3 3 C-2.01 2.01 -1.02 1.02 0 0 Z " fill="#000000" transform="translate(253,317)"/>
<path d="M0 0 C1.98 0 3.96 0 6 0 C6 0.33 6 0.66 6 1 C4.02 1 2.04 1 0 1 C0 0.67 0 0.34 0 0 Z " fill="#000000" transform="translate(223,335)"/>
<path d="M0 0 C0.99 0.33 1.98 0.66 3 1 C1.35 1.33 -0.3 1.66 -2 2 C-1.34 1.34 -0.68 0.68 0 0 Z " fill="#000000" transform="translate(246,332)"/>
<path d="M0 0 C1.98 0 3.96 0 6 0 C6 0.33 6 0.66 6 1 C4.02 1 2.04 1 0 1 C0 0.67 0 0.34 0 0 Z " fill="#000000" transform="translate(225,330)"/>
<path d="M0 0 C1.98 0 3.96 0 6 0 C6 0.33 6 0.66 6 1 C4.02 1 2.04 1 0 1 C0 0.67 0 0.34 0 0 Z " fill="#000000" transform="translate(298,259)"/>
<path d="M0 0 C1.98 0 3.96 0 6 0 C6 0.33 6 0.66 6 1 C4.02 1 2.04 1 0 1 C0 0.67 0 0.34 0 0 Z " fill="#000000" transform="translate(250,210)"/>
<path d="M0 0 C1.65 0 3.3 0 5 0 C5 0.33 5 0.66 5 1 C3.35 1 1.7 1 0 1 C0 0.67 0 0.34 0 0 Z " fill="#000000" transform="translate(232,329)"/>
<path d="M0 0 C0.99 0.33 1.98 0.66 3 1 C2.67 1.66 2.34 2.32 2 3 C1.34 2.01 0.68 1.02 0 0 Z " fill="#000000" transform="translate(309,263)"/>
<path d="M0 0 C1.65 0 3.3 0 5 0 C5 0.33 5 0.66 5 1 C3.35 1 1.7 1 0 1 C0 0.67 0 0.34 0 0 Z " fill="#000000" transform="translate(308,253)"/>
<path d="M0 0 C1.65 0 3.3 0 5 0 C5 0.33 5 0.66 5 1 C3.35 1 1.7 1 0 1 C0 0.67 0 0.34 0 0 Z " fill="#000000" transform="translate(298,253)"/>
<path d="M0 0 C1.65 0 3.3 0 5 0 C5 0.33 5 0.66 5 1 C3.35 1 1.7 1 0 1 C0 0.67 0 0.34 0 0 Z " fill="#000000" transform="translate(303,252)"/>
<path d="M0 0 C0.33 0 0.66 0 1 0 C1 1.65 1 3.3 1 5 C0.67 5 0.34 5 0 5 C0 3.35 0 1.7 0 0 Z " fill="#000000" transform="translate(265,220)"/>
<path d="M0 0 C4 1 4 1 4 1 Z " fill="#000000" transform="translate(229,336)"/>
<path d="M0 0 C4 1 4 1 4 1 Z " fill="#000000" transform="translate(240,334)"/>
<path d="M0 0 C0.66 0.33 1.32 0.66 2 1 C1.01 1 0.02 1 -1 1 C-0.67 0.67 -0.34 0.34 0 0 Z " fill="#000000" transform="translate(260,324)"/>
<path d="M0 0 C4 1 4 1 4 1 Z " fill="#000000" transform="translate(297,316)"/>
<path d="M0 0 C4 1 4 1 4 1 Z " fill="#000000" transform="translate(282,316)"/>
<path d="M0 0 C1 4 1 4 1 4 Z " fill="#000000" transform="translate(276,293)"/>
<path d="M0 0 C1 4 1 4 1 4 Z " fill="#000000" transform="translate(277,289)"/>
<path d="M0 0 C1 4 1 4 1 4 Z " fill="#000000" transform="translate(278,285)"/>
<path d="M0 0 C0.66 0.33 1.32 0.66 2 1 C1.01 1 0.02 1 -1 1 C-0.67 0.67 -0.34 0.34 0 0 Z " fill="#000000" transform="translate(245,212)"/>
<path d="M0 0 C4 1 4 1 4 1 Z " fill="#000000" transform="translate(250,202)"/>
<path d="M0 0 C3 1 3 1 3 1 Z " fill="#000000" transform="translate(237,328)"/>
<path d="M0 0 C3 1 3 1 3 1 Z " fill="#000000" transform="translate(301,315)"/>
<path d="M0 0 C3 1 3 1 3 1 Z " fill="#000000" transform="translate(297,310)"/>
<path d="" fill="#000000" transform="translate(0,0)"/>
<path d="" fill="#000000" transform="translate(0,0)"/>
<path d="" fill="#000000" transform="translate(0,0)"/>
<path d="" fill="#000000" transform="translate(0,0)"/>
<path d="M0 0 C3 1 3 1 3 1 Z " fill="#000000" transform="translate(304,260)"/>
<path d="M0 0 C3 1 3 1 3 1 Z " fill="#000000" transform="translate(295,260)"/>
<path d="M0 0 C3 1 3 1 3 1 Z " fill="#000000" transform="translate(313,254)"/>
<path d="M0 0 C3 1 3 1 3 1 Z " fill="#000000" transform="translate(295,254)"/>
<path d="M0 0 C3 1 3 1 3 1 Z " fill="#000000" transform="translate(247,211)"/>
<path d="M0 0 C3 1 3 1 3 1 Z " fill="#000000" transform="translate(203,211)"/>
<path d="M0 0 C3 1 3 1 3 1 Z " fill="#000000" transform="translate(214,207)"/>
<path d="M0 0 C3 1 3 1 3 1 Z " fill="#000000" transform="translate(266,202)"/>
<path d="" fill="#000000" transform="translate(0,0)"/>
<path d="" fill="#000000" transform="translate(0,0)"/>
<path d="M0 0 C2 1 2 1 2 1 Z " fill="#000000" transform="translate(249,331)"/>
<path d="M0 0 C2 1 2 1 2 1 Z " fill="#000000" transform="translate(253,329)"/>
<path d="M0 0 C2 1 2 1 2 1 Z " fill="#000000" transform="translate(255,328)"/>
<path d="M0 0 C2 1 2 1 2 1 Z " fill="#000000" transform="translate(240,327)"/>
<path d="M0 0 C2 1 2 1 2 1 Z " fill="#000000" transform="translate(242,326)"/>
<path d="M0 0 C2 1 2 1 2 1 Z " fill="#000000" transform="translate(244,325)"/>
<path d="" fill="#000000" transform="translate(0,0)"/>
<path d="M0 0 C2 1 2 1 2 1 Z " fill="#000000" transform="translate(280,315)"/>
<path d="M0 0 C2 1 2 1 2 1 Z " fill="#000000" transform="translate(304,314)"/>
<path d="M0 0 C2 1 2 1 2 1 Z " fill="#000000" transform="translate(278,314)"/>
<path d="M0 0 C2 1 2 1 2 1 Z " fill="#000000" transform="translate(306,313)"/>
<path d="M0 0 C2 1 2 1 2 1 Z " fill="#000000" transform="translate(276,313)"/>
<path d="M0 0 C2 1 2 1 2 1 Z " fill="#000000" transform="translate(308,312)"/>
<path d="M0 0 C2 1 2 1 2 1 Z " fill="#000000" transform="translate(311,310)"/>
<path d="M0 0 C2 1 2 1 2 1 Z " fill="#000000" transform="translate(285,310)"/>
<path d="M0 0 C2 1 2 1 2 1 Z " fill="#000000" transform="translate(272,310)"/>
<path d="M0 0 C2 1 2 1 2 1 Z " fill="#000000" transform="translate(283,309)"/>
<path d="M0 0 C2 1 2 1 2 1 Z " fill="#000000" transform="translate(301,308)"/>
<path d="" fill="#000000" transform="translate(0,0)"/>
<path d="" fill="#000000" transform="translate(0,0)"/>
<path d="" fill="#000000" transform="translate(0,0)"/>
<path d="" fill="#000000" transform="translate(0,0)"/>
<path d="" fill="#000000" transform="translate(0,0)"/>
<path d="" fill="#000000" transform="translate(0,0)"/>
<path d="" fill="#000000" transform="translate(0,0)"/>
<path d="" fill="#000000" transform="translate(0,0)"/>
<path d="" fill="#000000" transform="translate(0,0)"/>
<path d="M0 0 C2 1 2 1 2 1 Z " fill="#000000" transform="translate(283,263)"/>
<path d="M0 0 C2 1 2 1 2 1 Z " fill="#000000" transform="translate(292,262)"/>
<path d="M0 0 C2 1 2 1 2 1 Z " fill="#000000" transform="translate(318,256)"/>
<path d="M0 0 C2 1 2 1 2 1 Z " fill="#000000" transform="translate(291,256)"/>
<path d="M0 0 C2 1 2 1 2 1 Z " fill="#000000" transform="translate(316,255)"/>
<path d="M0 0 C2 1 2 1 2 1 Z " fill="#000000" transform="translate(293,255)"/>
<path d="" fill="#000000" transform="translate(0,0)"/>
<path d="" fill="#000000" transform="translate(0,0)"/>
<path d="" fill="#000000" transform="translate(0,0)"/>
<path d="" fill="#000000" transform="translate(0,0)"/>
<path d="" fill="#000000" transform="translate(0,0)"/>
<path d="" fill="#000000" transform="translate(0,0)"/>
<path d="M0 0 C2 1 2 1 2 1 Z " fill="#000000" transform="translate(258,212)"/>
<path d="M0 0 C2 1 2 1 2 1 Z " fill="#000000" transform="translate(206,212)"/>
<path d="M0 0 C2 1 2 1 2 1 Z " fill="#000000" transform="translate(256,211)"/>
<path d="M0 0 C2 1 2 1 2 1 Z " fill="#000000" transform="translate(242,206)"/>
<path d="M0 0 C2 1 2 1 2 1 Z " fill="#000000" transform="translate(271,204)"/>
<path d="M0 0 C2 1 2 1 2 1 Z " fill="#000000" transform="translate(245,204)"/>
<path d="M0 0 C2 1 2 1 2 1 Z " fill="#000000" transform="translate(269,203)"/>
<path d="M0 0 C2 1 2 1 2 1 Z " fill="#000000" transform="translate(248,203)"/>
<path d="" fill="#000000" transform="translate(0,0)"/>
<path d="" fill="#000000" transform="translate(0,0)"/>
<path d="" fill="#000000" transform="translate(0,0)"/>
<path d="" fill="#000000" transform="translate(0,0)"/>
<path d="" fill="#000000" transform="translate(0,0)"/>
<path d="" fill="#000000" transform="translate(0,0)"/>
<path d="" fill="#000000" transform="translate(0,0)"/>
<path d="M0 0 C2 1 2 1 2 1 Z " fill="#000000" transform="translate(255,74)"/>
<path d="" fill="#000000" transform="translate(0,0)"/>
<path d="" fill="#000000" transform="translate(0,0)"/>
<path d="" fill="#000000" transform="translate(0,0)"/>
<path d="" fill="#000000" transform="translate(0,0)"/>
<path d="" fill="#000000" transform="translate(0,0)"/>
<path d="" fill="#000000" transform="translate(0,0)"/>
<path d="" fill="#000000" transform="translate(0,0)"/>
<path d="" fill="#000000" transform="translate(0,0)"/>
<path d="" fill="#000000" transform="translate(0,0)"/>
<path d="" fill="#000000" transform="translate(0,0)"/>
<path d="" fill="#000000" transform="translate(0,0)"/>
<path d="" fill="#000000" transform="translate(0,0)"/>
<path d="" fill="#000000" transform="translate(0,0)"/>
<path d="" fill="#000000" transform="translate(0,0)"/>
<path d="" fill="#000000" transform="translate(0,0)"/>
<path d="" fill="#000000" transform="translate(0,0)"/>
<path d="" fill="#000000" transform="translate(0,0)"/>
<path d="" fill="#000000" transform="translate(0,0)"/>
<path d="" fill="#000000" transform="translate(0,0)"/>
<path d="" fill="#000000" transform="translate(0,0)"/>
<path d="" fill="#000000" transform="translate(0,0)"/>
<path d="" fill="#000000" transform="translate(0,0)"/>
<path d="" fill="#000000" transform="translate(0,0)"/>
<path d="" fill="#000000" transform="translate(0,0)"/>
<path d="" fill="#000000" transform="translate(0,0)"/>
<path d="" fill="#000000" transform="translate(0,0)"/>
<path d="" fill="#000000" transform="translate(0,0)"/>
<path d="" fill="#000000" transform="translate(0,0)"/>
<path d="" fill="#000000" transform="translate(0,0)"/>
<path d="" fill="#000000" transform="translate(0,0)"/>
<path d="" fill="#000000" transform="translate(0,0)"/>
<path d="" fill="#000000" transform="translate(0,0)"/>
<path d="" fill="#000000" transform="translate(0,0)"/>
<path d="" fill="#000000" transform="translate(0,0)"/>
<path d="" fill="#000000" transform="translate(0,0)"/>
<path d="" fill="#000000" transform="translate(0,0)"/>
<path d="" fill="#000000" transform="translate(0,0)"/>
<path d="" fill="#000000" transform="translate(0,0)"/>
<path d="" fill="#000000" transform="translate(0,0)"/>
<path d="" fill="#000000" transform="translate(0,0)"/>
<path d="" fill="#000000" transform="translate(0,0)"/>
<path d="" fill="#000000" transform="translate(0,0)"/>
<path d="" fill="#000000" transform="translate(0,0)"/>
<path d="" fill="#000000" transform="translate(0,0)"/>
<path d="" fill="#000000" transform="translate(0,0)"/>
<path d="" fill="#000000" transform="translate(0,0)"/>
<path d="" fill="#000000" transform="translate(0,0)"/>
<path d="" fill="#000000" transform="translate(0,0)"/>
<path d="" fill="#000000" transform="translate(0,0)"/>
<path d="" fill="#000000" transform="translate(0,0)"/>
<path d="" fill="#000000" transform="translate(0,0)"/>
<path d="" fill="#000000" transform="translate(0,0)"/>
<path d="" fill="#000000" transform="translate(0,0)"/>
<path d="" fill="#000000" transform="translate(0,0)"/>
<path d="" fill="#000000" transform="translate(0,0)"/>
<path d="" fill="#000000" transform="translate(0,0)"/>
<path d="" fill="#000000" transform="translate(0,0)"/>
<path d="" fill="#000000" transform="translate(0,0)"/>
<path d="" fill="#000000" transform="translate(0,0)"/>
<path d="" fill="#000000" transform="translate(0,0)"/>
<path d="" fill="#000000" transform="translate(0,0)"/>
<path d="" fill="#000000" transform="translate(0,0)"/>
<path d="" fill="#000000" transform="translate(0,0)"/>
<path d="" fill="#000000" transform="translate(0,0)"/>
<path d="" fill="#000000" transform="translate(0,0)"/>
<path d="" fill="#000000" transform="translate(0,0)"/>
<path d="" fill="#000000" transform="translate(0,0)"/>
<path d="" fill="#000000" transform="translate(0,0)"/>
<path d="" fill="#000000" transform="translate(0,0)"/>
<path d="" fill="#000000" transform="translate(0,0)"/>
<path d="" fill="#000000" transform="translate(0,0)"/>
<path d="" fill="#000000" transform="translate(0,0)"/>
<path d="" fill="#000000" transform="translate(0,0)"/>
<path d="" fill="#000000" transform="translate(0,0)"/>
<path d="" fill="#000000" transform="translate(0,0)"/>
<path d="" fill="#000000" transform="translate(0,0)"/>
<path d="" fill="#000000" transform="translate(0,0)"/>
<path d="" fill="#000000" transform="translate(0,0)"/>
</svg>
